<svg width="50" height="50" viewBox="0 0 50 50" fill="none" xmlns="http://www.w3.org/2000/svg">
<path d="M24.9997 8.3335C26.1503 8.3335 27.083 9.26624 27.083 10.4168V22.9168H39.583C40.7336 22.9168 41.6663 23.8496 41.6663 25.0002C41.6663 26.1508 40.7336 27.0835 39.583 27.0835H27.083V39.5835C27.083 40.7341 26.1503 41.6668 24.9997 41.6668C23.8491 41.6668 22.9163 40.7341 22.9163 39.5835V27.0835H10.4163C9.26575 27.0835 8.33301 26.1508 8.33301 25.0002C8.33301 23.8496 9.26575 22.9168 10.4163 22.9168H22.9163V10.4168C22.9163 9.26624 23.8491 8.3335 24.9997 8.3335Z" fill="#1A191C"/>
</svg>
